<?xml version="1.0" encoding="utf-8"?>
<!-- Generator: Adobe Illustrator 27.7.0, SVG Export Plug-In . SVG Version: 6.00 Build 0)  -->
<svg version="1.1" id="Layer_1" xmlns="http://www.w3.org/2000/svg" xmlns:xlink="http://www.w3.org/1999/xlink" x="0px" y="0px"
	 viewBox="0 0 352.3 97.8" style="enable-background:new 0 0 352.3 97.8;" xml:space="preserve">
<style type="text/css">
	.st0{fill:#32669A;}
	.st1{fill-rule:evenodd;clip-rule:evenodd;fill:#FFCD05;}
	.st2{fill-rule:evenodd;clip-rule:evenodd;fill:#32669A;}
</style>
<g>
	<g>
		<polygon class="st0" points="122.4,25.3 130.8,25.3 130.8,37.8 135.9,37.8 135.9,45.1 130.8,45.1 130.8,71.6 122.4,71.6
			122.4,45.1 118,45.1 118,37.8 122.4,37.8 		"/>
		<path class="st0" d="M165.5,37.8h8.5v33.8h-8.5V68c-1.7,1.6-3.3,2.7-5,3.4c-1.7,0.7-3.5,1-5.4,1c-4.4,0-8.2-1.7-11.4-5.1
			c-3.2-3.4-4.8-7.6-4.8-12.6c0-5.2,1.6-9.5,4.6-12.8c3.1-3.3,6.8-5,11.2-5c2,0,3.9,0.4,5.7,1.1c1.8,0.8,3.4,1.9,4.9,3.4V37.8
			L165.5,37.8z M156.5,44.8c-2.6,0-4.8,0.9-6.6,2.8c-1.7,1.8-2.6,4.2-2.6,7.1c0,2.9,0.9,5.3,2.6,7.2c1.8,1.9,3.9,2.8,6.5,2.8
			c2.7,0,4.9-0.9,6.6-2.8c1.8-1.8,2.6-4.3,2.6-7.3c0-2.9-0.9-5.3-2.6-7.1C161.4,45.7,159.2,44.8,156.5,44.8L156.5,44.8z"/>
		<path class="st0" d="M182.4,37.8h8.5v4c1.4-1.6,3.1-2.8,4.9-3.6c1.8-0.8,3.7-1.2,5.8-1.2c2.1,0,4,0.5,5.7,1.6
			c1.7,1,3.1,2.6,4.1,4.6c1.4-2,3-3.5,5-4.6c2-1,4.1-1.6,6.4-1.6c2.4,0,4.5,0.6,6.4,1.7c1.8,1.1,3.1,2.6,3.9,4.4
			c0.8,1.8,1.2,4.7,1.2,8.8v19.8h-8.5V54.5c0-3.8-0.5-6.4-1.4-7.8c-1-1.3-2.4-2-4.3-2c-1.5,0-2.8,0.4-3.9,1.2c-1.2,0.8-2,2-2.6,3.4
			c-0.6,1.5-0.9,3.8-0.9,7v15.2h-8.5V55.3c0-3-0.2-5.2-0.7-6.5c-0.4-1.4-1.1-2.4-2-3c-0.9-0.7-2-1-3.3-1c-1.4,0-2.7,0.4-3.9,1.2
			c-1.2,0.8-2,2-2.6,3.5c-0.6,1.5-0.9,3.9-0.9,7.1v15h-8.5L182.4,37.8L182.4,37.8z"/>
		<path class="st0" d="M267.3,37.8h8.5v33.8h-8.5V68c-1.6,1.6-3.3,2.7-5,3.4c-1.7,0.7-3.5,1-5.4,1c-4.4,0-8.2-1.7-11.4-5.1
			c-3.2-3.4-4.8-7.6-4.8-12.6c0-5.2,1.6-9.5,4.6-12.8c3.1-3.3,6.8-5,11.2-5c2,0,3.9,0.4,5.7,1.1c1.8,0.8,3.4,1.9,4.9,3.4L267.3,37.8
			L267.3,37.8z M258.4,44.8c-2.6,0-4.8,0.9-6.6,2.8c-1.7,1.8-2.6,4.2-2.6,7.1c0,2.9,0.9,5.3,2.6,7.2c1.8,1.9,3.9,2.8,6.5,2.8
			c2.7,0,4.9-0.9,6.6-2.8c1.8-1.8,2.6-4.3,2.6-7.3c0-2.9-0.9-5.3-2.6-7.1C263.3,45.7,261.1,44.8,258.4,44.8L258.4,44.8z"/>
		<path class="st0" d="M284.3,37.8h8.5v3.5c1.9-1.6,3.7-2.7,5.2-3.4s3.2-1,4.8-1c3.4,0,6.2,1.2,8.5,3.5c2,2,3,4.9,3,8.8v22.3h-8.4
			V56.8c0-4-0.2-6.7-0.5-8c-0.4-1.3-1-2.3-1.9-3c-0.9-0.7-2-1-3.3-1c-1.7,0-3.2,0.6-4.4,1.7s-2.1,2.7-2.6,4.8
			c-0.2,1.1-0.4,3.3-0.4,6.8v13.5h-8.5L284.3,37.8L284.3,37.8z"/>
		<path class="st0" d="M322.5,37.8h8.6v16.3c0,3.2,0.2,5.4,0.7,6.6c0.4,1.2,1.1,2.2,2.1,2.9c1,0.7,2.2,1,3.6,1c1.4,0,2.6-0.3,3.6-1
			c1-0.7,1.7-1.7,2.2-3c0.4-1,0.5-3.1,0.5-6.2V37.8h8.5v14.3c0,5.9-0.5,9.9-1.4,12.1c-1.1,2.7-2.8,4.7-5,6.1c-2.2,1.4-5,2.1-8.5,2.1
			c-3.7,0-6.7-0.8-9-2.5c-2.3-1.7-3.9-4-4.8-6.9c-0.7-2-1-5.8-1-11.2V37.8L322.5,37.8z"/>
	</g>
	<path class="st1" d="M50.7,68.6C44,61.9,36.5,55.2,30.6,48.5c-10.4-11.7-11.1-29.1,0-40.2c11.1-11.1,29.1-11.1,40.2,0
		c11.1,11.1,10.4,28.4,0,40.2C64.8,55.2,57.3,61.9,50.7,68.6L50.7,68.6z M28.2,27.8c0,5.9,2.3,12,6.6,16.8
		c3.9,4.4,8.4,8.7,12.9,13.1l2.9,2.8l2.9-2.8c4.5-4.3,9-8.7,12.9-13.1c4.3-4.9,6.6-10.9,6.6-16.9c0-5.6-2.1-11.1-6.4-15.4
		c-4.4-4.4-10.2-6.6-16-6.6s-11.6,2.2-16,6.6C30.3,16.7,28.2,22.2,28.2,27.8L28.2,27.8z"/>
	<polygon class="st2" points="46.5,15.8 54.8,15.8 54.8,24.1 63.2,24.1 63.2,32.5 54.8,32.5 54.8,40.9 46.5,40.9 46.5,32.5
		38.1,32.5 38.1,24.1 46.5,24.1 	"/>
	<path class="st2" d="M57.9,80.3l-2.8-3.2c2.4,0.1,4.6-2,6.9-0.1c3.5,2.7,7.1,4.7,15,6.1c1.3,0.2-0.7,1.8-7.3,1.3
		c-5.6-0.4,0.4,1.2-6.5,0.5c-2.4-0.2-1.1,0.3,3.3,1.2c2.2,0.4,1.4,2.4-10.7,1.6c-8.2-0.5-9.8-0.2-20.5,0.2c-3.6,0.2-9.4-1.5-3.4-2.7
		c3.3-0.7-8.1-1.4-8.1-2.3c0-0.9,5.6-2.1,8.1-2.8c4.7-1.4,8.6-3.6,10.3-4.9C48.5,70.4,50,76.3,57.9,80.3L57.9,80.3z"/>
	<path class="st1" d="M93.4,84.3c5,1.4,7.9,3,7.9,4.7c0,4.9-22.7,8.8-50.7,8.8C22.7,97.8,0,93.8,0,89c0-1.7,2.9-3.4,7.9-4.7
		c-2.5,0.9-4,2-4,3.1c0,4.2,20.9,7.6,46.7,7.6s46.7-3.4,46.7-7.6C97.3,86.2,95.9,85.2,93.4,84.3L93.4,84.3z"/>
	<path class="st1" d="M84.8,83.7c4,0.9,6.3,2,6.3,3.1c0,3.2-18.1,5.8-40.5,5.8s-40.5-2.6-40.5-5.8c0-1.2,2.3-2.2,6.3-3.1
		c-2,0.6-3.2,1.3-3.2,2c0,2.8,16.7,5,37.3,5s37.3-2.2,37.3-5C88,85,86.9,84.4,84.8,83.7L84.8,83.7z"/>
</g>
</svg>
